	.include "asm/macros.inc"
	.section .rodata
	.global gbs_Music_WhiteTreehollow
	.align 2

gbs_Music_WhiteTreehollow:
	channel_count 4
	channel 1, Music_WhiteTreehollow_Ch1
	channel 2, Music_WhiteTreehollow_Ch2
	channel 3, Music_WhiteTreehollow_Ch3
	channel 4, Music_WhiteTreehollow_Ch4

gbs_Music_WhiteTreehollow_Ch1:
	gbs_switch 0
Music_WhiteTreehollow_Ch1:
	tempo 176
	volume 7, 7
	duty_cycle 3
	pitch_offset 2
	vibrato 8, 1, 5
	note_type 12, 6, 2
	octave 4
	note As, 1
	note Ds, 1
	note F_, 1
	note Ds, 1
	octave 3
	note As, 1
	octave 4
	note As, 1
	note Ds, 1
	note Gs, 1
Music_WhiteTreehollow_Ch1_loop:
	octave 4
	duty_cycle 3
	volume_envelope 6, 2
	note G_, 1
	octave 3
	note As, 1
	octave 4
	note C_, 1
	note Ds, 1
	note As, 1
	note Ds, 1
	note C_, 1
	note G_, 1
	note Ds, 1
	note As, 1
	octave 3
	note As, 1
	octave 4
	note Ds, 1
	note Gs, 1
	note G_, 1
	note Ds, 1
	note F_, 1
	note As, 1
	octave 3
	note As, 1
	octave 4
	note F_, 1
	note Ds, 1
	note F_, 1
	note As, 1
	octave 3
	note As, 1
	octave 4
	note Ds, 1
	note As, 1
	note Ds, 1
	note F_, 1
	note Ds, 1
	octave 3
	note As, 1
	octave 4
	note As, 1
	note Ds, 1
	note Gs, 1
	note G_, 1
	octave 3
	note As, 1
	octave 4
	note C_, 1
	note Ds, 1
	note As, 1
	note Ds, 1
	note C_, 1
	note G_, 1
	note Ds, 1
	note As, 1
	octave 3
	note As, 1
	octave 4
	note Ds, 1
	note Gs, 1
	note G_, 1
	note Ds, 1
	note F_, 1
	note As, 1
	octave 3
	note As, 1
	octave 4
	note F_, 1
	note Ds, 1
	note F_, 1
	note As, 1
	octave 3
	note As, 1
	octave 4
	note Ds, 1
	note As, 1
	note D_, 1
	note F_, 1
	note D_, 1
	octave 3
	note As, 1
	octave 4
	note As, 1
	note D_, 1
	note Gs, 1
	note G_, 1
	octave 3
	note As, 1
	octave 4
	note C_, 1
	note Ds, 1
	note As, 1
	note Ds, 1
	note C_, 1
	note G_, 1
	note Ds, 1
	note As, 1
	octave 3
	note As, 1
	octave 4
	note Ds, 1
	note Gs, 1
	note G_, 1
	note Ds, 1
	note F_, 1
	note As, 1
	octave 3
	note As, 1
	octave 4
	note F_, 1
	note Ds, 1
	note F_, 1
	note As, 1
	octave 3
	note As, 1
	octave 4
	note Ds, 1
	note G_, 1
	note D_, 1
	note F_, 1
	note D_, 1
	octave 3
	note As, 1
	octave 4
	note As, 1
	note D_, 1
	note Gs, 1
	note G_, 1
	octave 3
	note As, 1
	octave 4
	note C_, 1
	note Ds, 1
	note As, 1
	note Ds, 1
	note C_, 1
	note G_, 1
	note Ds, 1
	note As, 1
	octave 3
	note As, 1
	octave 4
	note Ds, 1
	note Gs, 1
	note G_, 1
	note Ds, 1
	note F_, 1
	note As, 1
	octave 3
	note As, 1
	octave 4
	note F_, 1
	note Ds, 1
	note F_, 1
	note As, 1
	octave 3
	note As, 1
	octave 4
	note Ds, 1
	octave 3
	note As, 1
	octave 4
	note F_, 1
	note Ds, 1
	note As, 1
	note Ds, 1
	note F_, 1
	octave 3
	note As, 1
	octave 4
	note Ds, 1
	note G_, 1
	note F_, 1
	note As, 1
	octave 3
	note As, 1
	octave 4
	note F_, 1
	note Ds, 1
	octave 3
	note As, 1
	octave 4
	note F_, 1
	octave 3
	note As, 1
	octave 4
	note F_, 1
	note D_, 1
	note As, 1
	note D_, 1
	note F_, 1
	octave 3
	note As, 1
	octave 4
	note D_, 1
	note G_, 1
	note F_, 1
	note As, 1
	octave 3
	note As, 1
	octave 4
	note F_, 1
	note D_, 1
	octave 3
	note As, 1
	octave 4
	note F_, 1
	duty_cycle 1
	volume_envelope 8, 4
	octave 2
	note C_, 1
	octave 3
	note G_, 2
	octave 2
	note C_, 1
	octave 3
	note G_, 2
	octave 1
	note As, 1
	octave 3
	note G_, 1
	rest 5
	note G_, 3
	note F_, 1
	note F_, 1
	octave 1
	note F_, 1
	note As, 2
	octave 3
	note D_, 1
	octave 1
	note As, 1
	octave 2
	note C_, 1
	octave 3
	note G_, 2
	octave 2
	note C_, 1
	octave 3
	note G_, 5
	octave 1
	note C_, 1
	octave 3
	note As, 2
	octave 1
	note C_, 1
	octave 3
	note As, 2
	octave 1
	note As, 1
	octave 4
	note C_, 6
	note C_, 3
	octave 3
	note As, 1
	note As, 1
	octave 1
	note F_, 1
	note As, 2
	octave 3
	note As, 1
	octave 1
	note As, 1
	octave 2
	note Ds, 1
	octave 3
	note As, 2
	octave 2
	note Ds, 1
	octave 3
	note As, 2
	note As, 1
	rest 3
	note_type 3, 4, 2
	octave 7
	note Ds, 2
	note D_, 2
	note Cs, 2
	note C_, 2
	octave 6
	note B_, 2
	note As, 2
	note A_, 2
	note Gs, 2
	note G_, 2
	note Fs, 2
	note F_, 2
	note E_, 2
	sound_call Music_WhiteTreehollow_Ch1_branch_1
	rest 8
	octave 6
	note G_, 2
	note Fs, 2
	note F_, 2
	note E_, 2
	note Ds, 2
	note D_, 2
	note Cs, 2
	note C_, 2
	octave 5
	note B_, 2
	note As, 2
	note A_, 2
	note Gs, 2
	sound_call Music_WhiteTreehollow_Ch1_branch_1
	rest 8
	octave 6
	note As, 2
	note A_, 2
	note Gs, 2
	note G_, 2
	note Fs, 2
	note F_, 2
	note E_, 2
	note Ds, 2
	note D_, 2
	note Cs, 2
	note C_, 2
	octave 5
	note B_, 2
	sound_call Music_WhiteTreehollow_Ch1_branch_1
	rest 8
	octave 7
	note Ds, 2
	note D_, 2
	note Cs, 2
	note C_, 2
	octave 6
	note B_, 2
	note As, 2
	note A_, 2
	note Gs, 2
	note G_, 2
	note Fs, 2
	note F_, 2
	note E_, 2
	sound_call Music_WhiteTreehollow_Ch1_branch_1
	rest 4
	note_type 12, 6, 2
	duty_cycle 3
	note As, 1
	octave 3
	note As, 1
	octave 4
	note D_, 1
	note Gs, 1
	note Ds, 1
	note F_, 1
	octave 3
	note As, 1
	octave 4
	note Ds, 1
	note Gs, 1
	note As, 1
	octave 3
	note As, 1
	octave 4
	note Ds, 1
	note G_, 1
	note Gs, 1
	note Ds, 1
	octave 3
	note As, 1
	octave 4
	note As, 1
	octave 3
	note As, 1
	octave 4
	note D_, 1
	note Gs, 1
	note Ds, 1
	note F_, 1
	octave 3
	note As, 1
	octave 4
	note Ds, 1
	octave 3
	note As, 1
	octave 4
	note F_, 1
	note Ds, 1
	note As, 1
	note Gs, 1
	note G_, 1
	octave 3
	note As, 1
	octave 4
	note Ds, 1
	volume_envelope 8, 4
	octave 3
	note Ds, 3
	note Ds, 6
	note Ds, 3
	note Ds, 1
	note Ds, 1
	rest 2
	note F_, 4
	note F_, 2
	note Fs, 1
	note G_, 1
	rest 1
	note G_, 3
	note G_, 1
	note G_, 1
	rest 1
	note Ds, 4
	note G_, 6
	note Gs, 3
	note Gs, 1
	note Gs, 1
	rest 1
	note F_, 4
	octave 4
	note Ds, 7
	note Ds, 3
	note D_, 3
	duty_cycle 2
	octave 5
	volume_envelope 10, 5
	note Ds, 8
	sound_loop 0, Music_WhiteTreehollow_Ch1_loop
	
Music_WhiteTreehollow_Ch1_branch_1:
	volume_envelope 6, 2
	octave 4
	note As, 8
	octave 3
	note As, 4
	octave 4
	note As, 8
	octave 3
	note As, 4
	octave 4
	note As, 8
	volume_envelope 4, 2
	sound_ret


gbs_Music_WhiteTreehollow_Ch2:
	gbs_switch 1
Music_WhiteTreehollow_Ch2:
	duty_cycle 2
	vibrato 18, 2, 5
	pitch_offset 1
	note_type 12, 10, 2
	octave 2
	note Gs, 3
	note Gs, 7
Music_WhiteTreehollow_Ch2_loop:
	octave 1
	note Gs, 2
	octave 2
	note Gs, 1
	note Gs, 2
	octave 1
	note Gs, 1
	octave 2
	note Ds, 3
	note Ds, 7
	octave 1
	note Ds, 2
	octave 2
	note Ds, 1
	note Ds, 2
	octave 1
	note Ds, 1
	octave 2
	note Gs, 3
	note Gs, 7
	octave 1
	note Gs, 2
	octave 2
	note Gs, 1
	note Gs, 2
	note As, 1
	octave 3
	note C_, 3
	note C_, 7
	octave 2
	note C_, 2
	octave 3
	note C_, 1
	note C_, 2
	octave 2
	note C_, 1
	note G_, 3
	note G_, 5
	note Gs, 3
	note Gs, 5
	note As, 3
	note As, 5
	octave 3
	note C_, 3
	note C_, 5
	octave 2
	note G_, 3
	note G_, 6
	note Gs, 3
	note Gs, 4
	octave 1
	note Gs, 3
	note Gs, 10
	octave 2
	note Gs, 1
	octave 1
	note G_, 1
	note Gs, 1
	note As, 3
	note As, 13
	note As, 3
	note As, 10
	note G_, 1
	note Gs, 1
	note As, 1
	duty_cycle 0
	rest 1
	octave 4
	note G_, 1
	note Gs, 1
	note A_, 1
	note As, 1
	note Ds, 2
	note_type 3, 10, 2
	octave 5
	note D_, 1
	note Ds, 7
	note_type 12, 10, 2
	octave 4
	note Ds, 1
	note_type 3, 10, 2
	note Fs, 2
	note F_, 2
	note_type 12, 10, 2
	note Ds, 1
	note C_, 1
	octave 3
	note As, 1
	octave 4
	note Gs, 1
	note G_, 2
	note Gs, 1
	note As, 1
	octave 3
	note As, 2
	octave 4
	note F_, 1
	note Ds, 1
	note_type 3, 10, 2
	note G_, 1
	note Gs, 3
	note_type 12, 10, 2
	note G_, 1
	note Fs, 1
	note F_, 1
	note Ds, 1
	note_type 3, 10, 2
	octave 3
	note B_, 1
	octave 4
	note C_, 3
	note_type 12, 10, 2
	note Ds, 1
	note F_, 1
	octave 3
	note As, 1
	octave 4
	note Fs, 1
	note F_, 1
	note Ds, 1
	octave 5
	note Ds, 2
	octave 4
	note_type 3, 10, 2
	note G_, 2
	note Gs, 2
	note_type 12, 10, 2
	note G_, 1
	note Fs, 1
	octave 5
	note Ds, 1
	note Ds, 2
	note_type 3, 10, 2
	note F_, 1
	note Fs, 3
	note_type 12, 10, 2
	note F_, 1
	octave 4
	note As, 1
	octave 5
	note Ds, 3
	octave 4
	note Gs, 1
	note G_, 1
	note C_, 1
	note_type 3, 10, 2
	note F_, 1
	note Fs, 11
	note_type 12, 10, 2
	note Fs, 1
	note F_, 1
	octave 3
	note As, 1
	octave 4
	note_type 3, 10, 2
	note D_, 1
	note Ds, 3
	note_type 12, 10, 2
	note Ds, 5
	duty_cycle 2
	sound_call Music_WhiteTreehollow_Ch2_branch_1
	octave 2
	note As, 1
	sound_call Music_WhiteTreehollow_Ch2_branch_1
	octave 2
	note G_, 1
	volume_envelope 9, 2
	octave 2
	note Gs, 3
	note Gs, 6
	octave 1
	note Gs, 2
	note Gs, 1
	octave 2
	note Gs, 1
	note Gs, 2
	octave 1
	note Gs, 1
	octave 2
	note Ds, 3
	note Ds, 6
	octave 1
	note As, 2
	note As, 1
	octave 2
	note Ds, 1
	note Ds, 2
	octave 1
	note As, 1
	volume_envelope 8, 0
	octave 1
	note G_, 8
	note Gs, 8
	note As, 8
	octave 2
	note C_, 8
	duty_cycle 0
	volume_envelope 10, 3
	rest 1
	octave 2
	note As, 1
	octave 3
	note Ds, 1
	note Gs, 1
	note G_, 1
	note Gs, 1
	note As, 1
	octave 4
	note Ds, 3
	note F_, 1
	note Ds, 2
	note Gs, 1
	note G_, 1
	note Gs, 1
	note As, 1
	volume_envelope 10, 0
	note As, 5
	volume_envelope 10, 7
	note As, 6
	duty_cycle 2
	octave 4
	volume_envelope 10, 2
	note Ds, 1
	note G_, 1
	note Gs, 1
	note As, 1
	sound_loop 0, Music_WhiteTreehollow_Ch2

Music_WhiteTreehollow_Ch2_branch_1:
	volume_envelope 8, 0
	octave 2
	note Gs, 4
	volume_envelope 8, 7
	note Gs, 6
	octave 1
	volume_envelope 8, 2
	note Gs, 1
	octave 2
	note Gs, 1
	note G_, 1
	note Gs, 1
	note As, 1
	octave 3
	volume_envelope 8, 0
	note C_, 5
	volume_envelope 8, 7
	note C_, 6
	octave 2
	volume_envelope 8, 2
	note C_, 1
	octave 3
	note C_, 2
	octave 2
	note C_, 1
	octave 3
	note C_, 1
	sound_ret

gbs_Music_WhiteTreehollow_Ch3:
	gbs_switch 2
Music_WhiteTreehollow_Ch3:
	note_type 12, 1, 0
	vibrato 18, 2, 5
	octave 5
	rest 4
	note Gs, 4
	note G_, 2
	note Ds, 1
	octave 4
	note As, 2
	octave 5
	note C_, 1
	octave 4
	note As, 14
	volume_envelope 2, 0
	note As, 4
	volume_envelope 3, 0
	note As, 4
	volume_envelope 1, 0
	octave 5
	note As, 4
	note Gs, 2
	note G_, 1
	note Ds, 2
	note F_, 1
	octave 4
	note As, 14
	volume_envelope 2, 0
	note As, 4
	volume_envelope 3, 0
	note As, 2
	volume_envelope 1, 0
	note As, 2
	octave 5
	note F_, 2
	note Ds, 1
	note As, 7
	octave 6
	note C_, 1
	octave 5
	note As, 3
	note Gs, 2
	note G_, 2
	note Gs, 1
	note As, 1
	rest 1
	note Ds, 4
	note Ds, 1
	note F_, 1
	note G_, 7
	note Gs, 1
	note G_, 6
	note Ds, 1
	note F_, 1
	note G_, 12
	volume_envelope 2, 0
	note G_, 3
	volume_envelope 1, 0
	note Gs, 1
	note G_, 12
	volume_envelope 2, 0
	note G_, 3
	volume_envelope 1, 0
	note Gs, 1
	note F_, 13
	volume_envelope 2, 0
	note F_, 4
	volume_envelope 2, 5
	octave 3
	note C_, 6
	octave 2
	note As, 1
	note Gs, 1
	rest 5
	note Gs, 1
	rest 1
	note Gs, 1
	note As, 4
	note As, 2
	octave 3
	note D_, 1
	note C_, 1
	rest 2
	note C_, 1
	rest 2
	note G_, 1
	note As, 1
	octave 4
	note C_, 5
	rest 2 
	octave 3
	note As, 1
	note Gs, 1
	rest 1
	note Gs, 1
	rest 3
	octave 2
	note Gs, 1
	rest 1
	note Gs, 1
	note As, 3
	rest 2
	note As, 1
	octave 3
	note C_, 1
	note D_, 1
	note Ds, 1
	rest 2
	note Ds, 1
	rest 1
	note F_, 1
	note Ds, 1
	note As, 1
	volume_envelope 1, 0
	rest 1
	note Gs, 1
	note As, 1
	octave 4
	note Ds, 1
	note G_, 1
	note Gs, 1
	note As, 1
	octave 5
	note Ds, 5
	note F_, 1
	note G_, 1
	note Ds, 6
	octave 4
	note As, 1
	octave 5
	note C_, 1
	octave 4
	note Ds, 7
	note_type 3, 1, 0
	note D_, 1
	note Cs, 1
	note C_, 1
	octave 3
	note B_, 1
	note As, 1
	note A_, 1
	rest 10
	note_type 12, 1, 0
	note As, 1
	octave 4
	note Ds, 1
	note G_, 1
	note Gs, 1
	note As, 1
	octave 5
	note Ds, 1
	note G_, 4
	note G_, 1
	note Gs, 1
	note As, 1
	note Ds, 3
	note Ds, 1
	note D_, 1
	note Ds, 1
	note F_, 1
	note G_, 1
	octave 6
	note C_, 1
	note Ds, 7
	volume_envelope 2, 0
	note Ds, 2
	volume_envelope 1, 4
	octave 3
	rest 1
	note Gs, 1
	note As, 1
	octave 4
	note Ds, 1
	note G_, 1
	note Gs, 1
	note As, 1
	octave 5
	note Ds, 5
	note D_, 1
	note Ds, 1
	note F_, 1
	note As, 3
	note Gs, 1
	note G_, 2
	note F_, 1
	note Ds, 6
	volume_envelope 2, 4
	note Ds, 4
	volume_envelope 1, 2
	rest 1
	octave 3
	note As, 1
	octave 4
	note Ds, 1
	note Gs, 1
	note G_, 1
	note Gs, 1
	note As, 1
	octave 5
	note Ds, 3
	note F_, 1
	note Ds, 2
	octave 4
	note Ds, 1
	note G_, 1
	note Gs, 1
	note As, 1
	note G_, 1
	note Gs, 1
	note As, 2
	octave 5
	note C_, 1
	octave 4
	note Ds, 10
	volume_envelope 2, 5
	octave 2
	note G_, 1
	rest 2
	note G_, 1
	rest 2
	octave 1
	note G_, 1
	octave 2
	note G_, 1
	octave 1
	note Gs, 1
	octave 2
	note Gs, 1
	rest 1
	note Gs, 1
	rest 1
	note Gs, 1
	note Ds, 1
	note Gs, 1
	note As, 1
	note As, 1
	rest 1
	note As, 1
	rest 5
	octave 1
	note As, 1
	rest 1
	note As, 1
	octave 2
	note As, 1
	note As, 3
	sound_loop 0, Music_WhiteTreehollow_Ch3
	
gbs_Music_WhiteTreehollow_Ch4:
	gbs_switch 3
Music_WhiteTreehollow_Ch4:
	toggle_noise 3
	drum_speed 12
Music_WhiteTreehollow_Ch4_loop_main:
Music_WhiteTreehollow_Ch4_loop_1:
	drum_note 4, 4
	drum_note 1, 3
	drum_note 4, 3
	drum_note 4, 2
	drum_note 1, 4
	sound_loop 10, Music_WhiteTreehollow_Ch4_loop_1
Music_WhiteTreehollow_Ch4_loop_2:
	drum_note 2, 1
	drum_note 2, 1
	drum_note 2, 1
	drum_note 2, 1
	drum_note 1, 1
	drum_note 2, 1
	drum_note 2, 1
	drum_note 2, 1
	sound_loop 8, Music_WhiteTreehollow_Ch4_loop_2
	rest 16
	rest 16
	rest 16
	rest 16
Music_WhiteTreehollow_Ch4_loop_3:
	drum_note 4, 4
	drum_note 1, 3
	drum_note 4, 2
	drum_note 4, 2
	drum_note 4, 1
	drum_note 1, 1
	drum_note 1, 3
	sound_loop 6, Music_WhiteTreehollow_Ch4_loop_3
	sound_loop 0, Music_WhiteTreehollow_Ch4_loop_main
